<svg xmlns="http://www.w3.org/2000/svg" xmlns:xlink="http://www.w3.org/1999/xlink" version="1.1" id="Layer_1" x="0px" y="0px" width="100px" height="100px" viewBox="0 0 100 100" enable-background="new 0 0 100 100" xml:space="preserve">
<rect y="94.444" width="100" height="5.556"/>
<path d="M8.333,75H2.778C1.245,75,0,76.242,0,77.778l0,11.111h11.111l0-11.111C11.111,76.242,9.867,75,8.333,75z"/>
<path d="M30.555,58.333H25c-1.534,0-2.778,1.242-2.778,2.778l0,27.777h11.111l-0.001-27.777  C33.333,59.576,32.088,58.333,30.555,58.333z"/>
<path d="M52.778,63.889h-5.556c-1.533,0-2.778,1.243-2.778,2.778l0.001,22.222h11.111l0-22.222  C55.556,65.131,54.311,63.889,52.778,63.889z"/>
<path d="M75,43.056h-5.556c-1.533,0-2.778,1.242-2.778,2.778l0.001,43.055h11.111l0-43.055C77.778,44.298,76.533,43.056,75,43.056z"/>
<path d="M97.222,9.722h-5.556c-1.533,0-2.778,1.243-2.778,2.778l0,76.389H100l0-76.389C100,10.965,98.755,9.722,97.222,9.722z"/>
<g>
	<path d="M20.833,29.276V25h-4.167v7.084c3.17,0.645,5.556,3.447,5.556,6.805c0,3.836-3.109,6.945-6.944,6.945   c-3.834,0-6.944-3.109-6.944-6.945c0-3.358,2.386-6.16,5.555-6.803V5.56h0.001l-0.001-0.004c0-0.767,0.622-1.389,1.389-1.389   s1.389,0.623,1.389,1.389l0,0.004h0v2.774h4.167V5.556C20.833,2.487,18.345,0,15.278,0S9.722,2.487,9.722,5.556v23.721   c-3.317,1.922-5.556,5.503-5.556,9.612C4.167,45.025,9.141,50,15.278,50s11.111-4.975,11.111-11.111   C26.389,34.779,24.151,31.198,20.833,29.276z"/>
	<rect x="16.667" y="18.056" width="4.167" height="4.167"/>
	<rect x="16.667" y="11.111" width="4.167" height="4.167"/>
</g>
</svg>